<svg version="1.1" id="Layer_1" xmlns="http://www.w3.org/2000/svg" xmlns:xlink="http://www.w3.org/1999/xlink" x="0px" y="0px"
	 width="100%" viewBox="0 0 2176 1065" enable-background="new 0 0 2176 1065" xml:space="preserve">
<path fill="#FFFFFF" opacity="1.000000" stroke="none" 
	d="
M1309.000000,1066.000000 
	C872.666809,1066.000000 436.833588,1066.000000 1.000292,1066.000000 
	C1.000195,711.000244 1.000195,356.000458 1.000098,1.000530 
	C726.332825,1.000354 1451.665649,1.000354 2176.999023,1.000177 
	C2176.999268,355.999420 2176.999268,710.998840 2176.999512,1065.999146 
	C1887.833374,1066.000000 1598.666626,1066.000000 1309.000000,1066.000000 
M1369.662598,338.094330 
	C1369.648071,327.765625 1369.740601,317.434326 1369.489624,307.111359 
	C1369.456787,305.756317 1367.689819,303.306213 1366.685181,303.284851 
	C1354.237549,303.020111 1341.782227,303.111938 1328.765137,303.111938 
	C1328.765137,315.583252 1328.765137,327.635010 1328.765137,340.074097 
	C1322.767822,340.074097 1317.332031,340.074097 1311.953369,340.074097 
	C1311.953369,351.865936 1311.953369,363.248718 1311.953369,375.094727 
	C1317.703125,375.094727 1323.116821,375.094727 1328.827148,375.094727 
	C1328.827148,377.359558 1328.818115,379.166290 1328.828491,380.972931 
	C1328.968384,405.291595 1328.987427,429.612274 1329.379272,453.926910 
	C1329.441895,457.810394 1330.809692,461.806366 1332.208130,465.511017 
	C1337.490601,479.504883 1348.593628,485.023041 1362.742188,485.879089 
	C1375.417236,486.646027 1387.821777,485.727325 1399.328735,479.730804 
	C1400.747803,478.991211 1402.696899,477.403595 1402.730347,476.164062 
	C1403.005371,465.949829 1402.885620,455.724915 1402.885620,446.539001 
	C1395.202637,447.763916 1388.058594,449.376923 1380.834717,449.911865 
	C1374.506836,450.380402 1370.145508,446.087646 1369.947266,439.723694 
	C1369.605469,428.739685 1369.673584,417.742035 1369.628906,406.749908 
	C1369.586426,396.297638 1369.619751,385.845062 1369.619751,374.790833 
	C1381.047729,374.790833 1392.086548,374.790833 1403.082275,374.790833 
	C1403.082275,362.914062 1403.082275,351.645538 1403.082275,339.807526 
	C1392.241211,339.807526 1381.619507,339.807526 1370.733398,339.421997 
	C1370.510132,339.184814 1370.236938,339.045258 1369.662598,338.094330 
M1687.084473,648.035217 
	C1687.084473,625.611084 1687.084473,603.186890 1687.084473,580.924194 
	C1673.158203,580.924194 1659.898682,580.924194 1646.459229,580.924194 
	C1646.459229,646.133423 1646.459229,711.024414 1646.459229,776.184875 
	C1660.056152,776.184875 1673.410156,776.184875 1687.074585,776.184875 
	C1687.074585,774.230103 1687.074463,772.586914 1687.074463,770.943726 
	C1687.074585,746.623169 1686.828247,722.298340 1687.244263,697.984863 
	C1687.351562,691.718079 1688.650146,685.126770 1690.993652,679.327942 
	C1694.127808,671.572998 1700.561279,667.914368 1709.430054,667.844788 
	C1718.663574,667.772522 1726.870117,668.843323 1732.304565,677.386780 
	C1736.186768,683.490234 1737.073730,690.343201 1737.108887,697.285889 
	C1737.233154,721.772461 1737.157349,746.259949 1737.157349,770.747131 
	C1737.157349,772.519104 1737.157349,774.291077 1737.157349,776.286682 
	C1750.979980,776.286682 1764.250732,776.286682 1777.492188,776.286682 
	C1777.677002,775.929932 1777.963501,775.636292 1777.960815,775.345276 
	C1777.646118,740.245972 1777.899170,705.126099 1776.668945,670.058411 
	C1776.211304,657.014465 1769.252319,645.755676 1758.049072,638.177307 
	C1739.995605,625.965210 1707.575562,625.006104 1688.450928,649.886963 
	C1688.025269,649.579346 1687.599487,649.271729 1687.084473,648.035217 
M1071.044067,662.950745 
	C1046.704346,662.919128 1022.364685,662.887512 997.747498,662.496643 
	C997.545837,662.258850 997.296265,662.093384 996.861572,661.071533 
	C996.861572,637.120422 996.861572,613.169373 996.861572,589.003052 
	C982.819641,589.003052 969.269897,589.003052 955.552368,589.003052 
	C955.552368,651.534119 955.552368,713.757446 955.552368,776.192627 
	C969.375793,776.192627 982.934021,776.192627 996.998962,776.192627 
	C996.998962,751.248535 996.998962,726.624146 997.409485,701.806030 
	C997.655762,701.623596 997.860962,701.402954 998.954773,701.046265 
	C1023.292969,701.092346 1047.631226,701.138489 1072.122070,701.570496 
	C1072.276855,701.821289 1072.498657,701.975525 1072.911255,702.958801 
	C1072.911255,727.391296 1072.911255,751.823792 1072.911255,776.249268 
	C1086.896851,776.249268 1100.314087,776.249268 1113.868774,776.249268 
	C1113.868774,713.661377 1113.868774,651.319519 1113.868774,588.927490 
	C1100.158081,588.927490 1086.750610,588.927490 1072.790161,588.927490 
	C1072.790161,613.427002 1072.790161,637.697266 1072.407715,662.128601 
	C1072.177002,662.304016 1072.030762,662.533386 1071.044067,662.950745 
M675.677002,292.938385 
	C675.252197,292.676514 674.852295,292.356842 674.398987,292.160919 
	C638.307617,276.559784 600.251465,269.947845 561.280396,268.122742 
	C545.204956,267.369873 529.031982,267.351105 512.962952,268.169495 
	C495.102692,269.079071 477.209351,270.616028 459.510773,273.143066 
	C428.033661,277.637360 398.040314,286.978424 370.295319,302.999603 
	C350.462738,314.451782 333.224030,328.944977 319.054932,346.803772 
	C303.391571,366.545868 292.110596,388.702423 284.058472,412.682098 
	C277.409027,432.484436 273.158264,452.780273 270.280212,473.304657 
	C268.190033,488.210724 267.827728,503.405121 267.424408,518.490417 
	C266.880493,538.831543 266.388550,559.212524 269.165894,579.474304 
	C270.839661,591.685242 272.322327,603.929077 274.324158,616.086792 
	C278.090820,638.963318 285.182007,660.815552 295.171631,681.753479 
	C304.809814,701.954773 317.120789,720.273010 333.359283,735.730835 
	C339.744385,741.808777 346.722351,747.291687 353.652466,752.764221 
	C374.669800,769.360962 398.992035,779.281433 424.390442,786.651794 
	C435.390411,789.843933 446.749023,791.932617 458.051331,793.914307 
	C469.888153,795.989685 481.813049,797.769470 493.773926,798.866150 
	C503.784027,799.783997 513.900085,799.623474 523.971741,799.776978 
	C545.616882,800.106934 567.213867,799.718811 588.750854,796.942505 
	C609.723511,794.238892 630.384033,790.315430 650.563904,783.924438 
	C678.454895,775.091370 703.922974,761.752747 725.901062,742.376343 
	C752.599976,718.838013 770.571411,689.472595 782.025757,655.919983 
	C794.551208,619.230042 798.741516,581.239197 799.711853,542.777161 
	C799.996582,531.487366 799.452759,520.163635 798.946899,508.870819 
	C798.486816,498.600983 798.401062,488.207489 796.664001,478.124573 
	C793.317383,458.698914 789.889221,439.191437 784.735474,420.195251 
	C776.818848,391.015778 762.950623,364.552826 742.943054,341.707245 
	C724.449219,320.590088 702.100342,304.490509 675.677002,292.938385 
M939.240845,398.398071 
	C939.169189,400.218170 938.673706,402.143311 939.094604,403.841339 
	C941.806274,414.782501 944.199463,425.773987 949.672302,435.891815 
	C958.388672,452.005920 970.149109,465.057861 986.288574,473.801453 
	C1006.884338,484.959198 1028.904907,488.925232 1052.197510,486.116486 
	C1112.662231,478.825317 1150.176514,422.500153 1135.392822,364.696991 
	C1124.493408,322.080627 1089.725708,296.670074 1048.353394,293.196808 
	C1025.225342,291.255096 1003.223938,295.743561 983.085266,308.090637 
	C967.807251,317.457703 956.540283,330.557526 948.662354,346.201843 
	C940.638611,362.135651 937.560364,379.462921 939.240845,398.398071 
M1851.180908,484.824829 
	C1851.323730,484.738922 1851.456299,484.608612 1851.610718,484.573364 
	C1886.958374,476.497833 1913.942383,443.143494 1909.049316,403.099976 
	C1906.349243,381.002319 1896.005859,363.590057 1877.736938,351.098907 
	C1859.083130,338.344727 1838.463745,335.041046 1816.290894,338.877258 
	C1796.759033,342.256500 1780.669189,351.270721 1768.823730,367.026825 
	C1755.616211,384.594574 1751.468872,404.533234 1755.225586,426.214447 
	C1758.749634,446.552338 1769.533936,462.139587 1786.155762,473.830048 
	C1795.694336,480.538605 1806.446655,484.363342 1818.038940,486.056091 
	C1828.912598,487.643921 1839.634033,487.115540 1851.180908,484.824829 
M1270.725830,752.619446 
	C1263.868530,746.621948 1256.855713,740.789734 1250.228882,734.547607 
	C1247.488525,731.966248 1245.859131,732.898987 1243.637817,734.860107 
	C1232.079956,745.063965 1218.804199,749.058716 1203.494019,746.033447 
	C1190.604980,743.486450 1179.464233,731.859863 1178.165039,718.860229 
	C1211.297363,718.860229 1244.389648,718.860229 1278.847534,718.860229 
	C1277.855225,707.346924 1277.887451,696.169678 1275.733887,685.430786 
	C1272.467407,669.142517 1265.028076,654.776611 1251.620972,644.063843 
	C1241.519531,635.992371 1229.912720,631.887024 1217.278687,630.488403 
	C1199.312012,628.499451 1182.304565,631.708252 1167.433472,642.239685 
	C1149.479980,654.954224 1139.899780,673.381287 1137.339722,694.624329 
	C1135.423706,710.522217 1137.239624,726.685547 1145.158936,741.332703 
	C1150.373535,750.977478 1156.870117,759.535522 1166.057983,765.907898 
	C1182.727173,777.469055 1200.973633,781.233582 1221.083618,779.161682 
	C1241.263428,777.082581 1257.693726,768.771118 1270.725830,752.619446 
M1435.079224,354.355438 
	C1437.826416,362.118805 1440.552856,369.889618 1443.336670,377.639832 
	C1443.956909,379.366852 1444.032959,381.700409 1447.183228,380.399994 
	C1462.491821,374.080719 1478.333008,372.185425 1494.717651,374.927032 
	C1508.485840,377.230835 1515.660889,387.757141 1514.527466,401.343201 
	C1513.227173,401.069153 1511.935669,400.883026 1510.694824,400.522430 
	C1493.726196,395.591248 1476.576416,394.556580 1459.210571,398.080902 
	C1446.476562,400.665161 1435.402710,406.000366 1428.204102,417.393951 
	C1422.752686,426.022217 1421.147705,435.697632 1422.235718,445.612518 
	C1422.912354,451.781067 1423.864746,458.379333 1426.664062,463.759430 
	C1432.519409,475.012939 1442.403076,481.998993 1454.945435,484.466156 
	C1475.197021,488.449768 1494.342163,486.666809 1510.757568,472.466522 
	C1511.531250,471.797211 1512.499390,471.352692 1514.027344,470.396515 
	C1514.027344,475.275848 1514.027344,479.364777 1514.027344,483.547058 
	C1527.640137,483.547058 1540.847534,483.547058 1554.306641,483.547058 
	C1554.306641,457.549652 1554.396851,431.895264 1554.247070,406.242249 
	C1554.206421,399.290100 1553.861328,392.285126 1552.929077,385.402863 
	C1549.956055,363.454010 1538.347900,348.488281 1516.720581,341.979248 
	C1501.331421,337.347626 1485.549805,337.288910 1469.995605,339.756012 
	C1458.750732,341.539551 1447.880981,345.652618 1436.814697,348.617493 
	C1433.541626,349.494385 1433.871216,351.280029 1435.079224,354.355438 
M1297.000610,750.515076 
	C1297.069702,751.169678 1296.967529,751.904968 1297.232788,752.467102 
	C1305.301147,769.575623 1319.205322,777.828491 1337.719238,778.900757 
	C1348.788574,779.541809 1359.841309,779.197021 1369.866211,773.820007 
	C1375.896118,770.585754 1381.427979,766.422546 1387.532715,762.449646 
	C1387.532715,766.886047 1387.532715,771.456543 1387.532715,776.204834 
	C1400.954956,776.204834 1413.820068,776.204834 1427.002441,776.204834 
	C1427.002441,774.936829 1427.002563,773.960266 1427.002441,772.983765 
	C1426.998169,746.332031 1427.112549,719.679321 1426.900269,693.029236 
	C1426.851929,686.954895 1426.001343,680.833008 1424.960327,674.830078 
	C1420.798340,650.833801 1405.259399,637.720825 1382.865845,632.994873 
	C1369.549805,630.184631 1356.062378,630.144897 1342.805786,632.341187 
	C1332.036621,634.125305 1321.549072,637.657288 1310.982910,640.581360 
	C1308.645630,641.228210 1306.231079,642.448486 1307.360229,645.736938 
	C1310.507812,654.902100 1313.706909,664.049500 1316.971558,673.451416 
	C1322.458496,671.870117 1327.526978,670.124512 1332.726807,668.971802 
	C1342.607422,666.781494 1352.426147,665.778564 1362.773560,666.696472 
	C1377.398804,667.993896 1389.797241,678.949768 1386.533325,694.038086 
	C1385.731567,693.927490 1384.879761,693.939270 1384.115845,693.685608 
	C1366.230957,687.746704 1348.047607,687.366150 1329.785400,691.274902 
	C1318.686157,693.650574 1308.748657,698.284912 1302.114502,708.255554 
	C1293.460938,721.261169 1292.115356,735.183350 1297.000610,750.515076 
M1164.721802,483.889679 
	C1176.675903,483.889679 1188.629883,483.889679 1201.075684,483.889679 
	C1201.075684,481.694092 1201.075562,479.911591 1201.075806,478.129089 
	C1201.078003,453.137543 1200.970825,428.145233 1201.136108,403.154785 
	C1201.202393,393.135406 1202.915527,383.201965 1212.764893,378.079254 
	C1217.244873,375.749237 1223.010498,375.361359 1228.238892,375.129852 
	C1235.261353,374.818909 1241.155762,377.481079 1245.561157,383.528931 
	C1250.154053,389.834198 1250.891235,397.071442 1250.985474,404.225037 
	C1251.309814,428.879120 1251.110229,453.540070 1251.110107,478.198425 
	C1251.110107,479.970856 1251.110107,481.743317 1251.110107,483.546570 
	C1265.088501,483.546570 1278.471680,483.546570 1291.916870,483.546570 
	C1291.916870,450.388245 1292.161011,417.571198 1291.770508,384.761688 
	C1291.650757,374.699127 1288.482544,365.085480 1282.896484,356.465088 
	C1271.601685,339.034760 1247.295044,333.503448 1226.986572,339.749542 
	C1216.561890,342.955841 1208.725464,349.742584 1201.111816,359.409088 
	C1201.111816,351.990387 1201.111816,346.047577 1201.111816,340.222412 
	C1187.084473,340.222412 1173.822632,340.222412 1160.785278,340.222412 
	C1160.458008,340.608154 1160.256836,340.734497 1160.256714,340.861053 
	C1160.215698,387.510895 1160.212402,434.160828 1160.104492,480.810486 
	C1160.097656,483.770996 1161.505737,484.114288 1164.721802,483.889679 
M1602.931885,742.798584 
	C1588.911133,743.664307 1585.149902,740.128174 1585.125366,725.997681 
	C1585.105591,714.667664 1585.121338,703.337646 1585.121338,692.007629 
	C1585.121216,684.048096 1585.121216,676.088623 1585.121216,667.576965 
	C1596.637451,667.576965 1607.707520,667.576965 1618.642700,667.576965 
	C1618.642700,655.613586 1618.642700,644.214111 1618.642700,632.443970 
	C1607.344116,632.443970 1596.404419,632.443970 1585.066406,632.443970 
	C1585.066406,620.150452 1585.066406,608.230591 1585.066406,596.291565 
	C1571.288208,596.291565 1557.923950,596.291565 1544.285889,596.291565 
	C1544.285889,607.299622 1544.204590,617.942627 1544.335205,628.583008 
	C1544.374634,631.792480 1543.260254,633.148193 1540.000244,633.031799 
	C1535.757935,632.880310 1531.506226,632.994751 1527.490479,632.994751 
	C1527.490479,644.971802 1527.490479,656.196167 1527.490479,667.888977 
	C1533.268677,667.888977 1538.672241,667.888977 1544.291016,667.888977 
	C1544.291016,670.685547 1544.265503,673.002075 1544.294922,675.317871 
	C1544.608521,700.024414 1544.250488,724.766663 1545.547485,749.421753 
	C1546.163940,761.143250 1552.511475,771.281738 1564.312744,775.491821 
	C1580.331055,781.206421 1596.461548,779.986206 1612.310913,773.845886 
	C1617.147217,771.972168 1619.011597,769.137939 1618.628174,763.816589 
	C1618.102417,756.523743 1618.527954,749.163818 1618.496094,741.832764 
	C1618.490845,740.618103 1618.231934,739.404480 1618.108276,738.343872 
	C1613.031250,739.785156 1608.375854,741.106812 1602.931885,742.798584 
M1624.972046,342.694061 
	C1624.360107,341.786469 1623.757324,340.094330 1623.134766,340.086945 
	C1610.206787,339.933502 1597.276611,339.971283 1584.333740,339.971283 
	C1584.333740,388.189850 1584.333740,435.882629 1584.333740,483.532166 
	C1598.022827,483.532166 1611.402710,483.532166 1624.973022,483.532166 
	C1624.973022,479.686646 1624.921509,476.197418 1624.981323,472.710114 
	C1625.303345,453.941345 1624.619995,435.080139 1626.296631,416.431824 
	C1627.834717,399.325317 1636.902222,386.428741 1654.606201,381.768036 
	C1659.742065,380.415985 1665.166992,380.162079 1670.597412,379.385040 
	C1670.597412,365.498627 1670.597412,351.589050 1670.597412,337.381805 
	C1648.606934,336.134033 1634.167725,346.421967 1624.973022,365.565491 
	C1624.973022,358.265320 1624.973022,350.965118 1624.972046,342.694061 
M1499.300293,601.500122 
	C1499.300293,594.580627 1499.300293,587.661194 1499.300293,581.010803 
	C1485.280640,581.010803 1472.043701,581.010803 1458.936157,581.010803 
	C1458.936157,646.308350 1458.936157,711.206848 1458.936157,776.178650 
	C1472.484497,776.178650 1485.706787,776.178650 1499.300293,776.178650 
	C1499.300293,718.064087 1499.300293,660.282104 1499.300293,601.500122 
M1692.763916,475.458740 
	C1692.763916,478.203522 1692.763916,480.948303 1692.763916,483.666016 
	C1706.652222,483.666016 1719.754150,483.666016 1733.241577,483.666016 
	C1733.241577,435.745300 1733.241577,388.050446 1733.241577,340.276855 
	C1719.721191,340.276855 1706.330566,340.276855 1692.763916,340.276855 
	C1692.763916,385.217529 1692.763916,429.842194 1692.763916,475.458740 
M1700.522461,287.923828 
	C1697.615723,287.923828 1694.708862,287.923828 1692.041748,287.923828 
	C1692.041748,300.423035 1692.041748,312.154968 1692.041748,323.910828 
	C1706.323486,323.910828 1720.255371,323.910828 1734.338379,323.910828 
	C1734.338379,311.847076 1734.338379,299.996307 1734.338379,287.923859 
	C1723.150269,287.923859 1712.334839,287.923859 1700.522461,287.923828 
z"/>
<path fill="#02B1E2" opacity="1.000000" stroke="none" 
	d="
M676.055542,292.994568 
	C702.100342,304.490509 724.449219,320.590088 742.943054,341.707245 
	C762.950623,364.552826 776.818848,391.015778 784.735474,420.195251 
	C789.889221,439.191437 793.317383,458.698914 796.664001,478.124573 
	C798.401062,488.207489 798.486816,498.600983 798.946899,508.870819 
	C799.452759,520.163635 799.996582,531.487366 799.711853,542.777161 
	C798.741516,581.239197 794.551208,619.230042 782.025757,655.919983 
	C770.571411,689.472595 752.599976,718.838013 725.901062,742.376343 
	C703.922974,761.752747 678.454895,775.091370 650.563904,783.924438 
	C630.384033,790.315430 609.723511,794.238892 588.750854,796.942505 
	C567.213867,799.718811 545.616882,800.106934 523.971741,799.776978 
	C513.900085,799.623474 503.784027,799.783997 493.773926,798.866150 
	C481.813049,797.769470 469.888153,795.989685 458.051331,793.914307 
	C446.749023,791.932617 435.390411,789.843933 424.390442,786.651794 
	C398.992035,779.281433 374.669800,769.360962 353.652466,752.764221 
	C346.722351,747.291687 339.744385,741.808777 333.359283,735.730835 
	C317.120789,720.273010 304.809814,701.954773 295.171631,681.753479 
	C285.182007,660.815552 278.090820,638.963318 274.324158,616.086792 
	C272.322327,603.929077 270.839661,591.685242 269.165894,579.474304 
	C266.388550,559.212524 266.880493,538.831543 267.424408,518.490417 
	C267.827728,503.405121 268.190033,488.210724 270.280212,473.304657 
	C273.158264,452.780273 277.409027,432.484436 284.058472,412.682098 
	C292.110596,388.702423 303.391571,366.545868 319.054932,346.803772 
	C333.224030,328.944977 350.462738,314.451782 370.295319,302.999603 
	C398.040314,286.978424 428.033661,277.637360 459.510773,273.143066 
	C477.209351,270.616028 495.102692,269.079071 512.962952,268.169495 
	C529.031982,267.351105 545.204956,267.369873 561.280396,268.122742 
	C600.251465,269.947845 638.307617,276.559784 674.398987,292.160919 
	C674.852295,292.356842 675.252197,292.676514 676.055542,292.994568 
M600.717041,633.164307 
	C608.671326,610.764282 612.106445,587.670410 610.839355,563.955078 
	C610.614197,559.741211 612.129028,557.941711 615.601135,556.067566 
	C671.886169,525.686279 703.765930,478.698212 711.287476,415.131714 
	C711.698547,411.657715 710.383911,410.499084 707.658020,409.309418 
	C671.923218,393.713440 634.983276,389.689453 596.798706,397.685577 
	C573.873596,402.486237 552.901428,411.922211 533.435791,424.997070 
	C531.933716,424.028900 530.557068,423.105072 529.145996,422.237274 
	C474.699005,388.754120 418.067108,384.553375 359.256653,409.570038 
	C356.934357,410.557922 355.122772,411.241211 355.555969,414.829712 
	C363.141388,477.664612 394.302917,524.683960 449.764099,555.261597 
	C454.757111,558.014404 456.266205,560.699768 456.046387,566.247681 
	C454.338898,609.338196 466.938782,647.996399 493.183197,682.148987 
	C504.511444,696.890747 517.955811,709.457947 533.615662,719.896667 
	C564.804932,697.907227 587.179077,669.460693 600.717041,633.164307 
z"/>
<path fill="#242120" opacity="1.000000" stroke="none" 
	d="
M939.210083,397.910309 
	C937.560364,379.462921 940.638611,362.135651 948.662354,346.201843 
	C956.540283,330.557526 967.807251,317.457703 983.085266,308.090637 
	C1003.223938,295.743561 1025.225342,291.255096 1048.353394,293.196808 
	C1089.725708,296.670074 1124.493408,322.080627 1135.392822,364.696991 
	C1150.176514,422.500153 1112.662231,478.825317 1052.197510,486.116486 
	C1028.904907,488.925232 1006.884338,484.959198 986.288574,473.801453 
	C970.149109,465.057861 958.388672,452.005920 949.672302,435.891815 
	C944.199463,425.773987 941.806274,414.782501 939.094604,403.841339 
	C938.673706,402.143311 939.169189,400.218170 939.210083,397.910309 
M1088.628174,419.014862 
	C1095.375732,405.562317 1097.156738,391.334503 1093.914917,376.785461 
	C1088.822388,353.930450 1075.256226,338.168365 1052.158691,332.659668 
	C1029.570068,327.272339 1009.813904,333.310455 994.962585,351.705963 
	C983.939392,365.359680 980.784302,381.370789 982.877380,398.667633 
	C985.804932,422.860199 1003.877625,442.904785 1027.488892,447.751099 
	C1052.241333,452.831635 1075.860596,441.897034 1088.628174,419.014862 
z"/>
<path fill="#24201F" opacity="1.000000" stroke="none" 
	d="
M996.998901,701.999817 
	C996.998962,726.624146 996.998962,751.248535 996.998962,776.192627 
	C982.934021,776.192627 969.375793,776.192627 955.552368,776.192627 
	C955.552368,713.757446 955.552368,651.534119 955.552368,589.003052 
	C969.269897,589.003052 982.819641,589.003052 996.861572,589.003052 
	C996.861572,613.169373 996.861572,637.120422 996.899536,661.838623 
	C997.300049,662.689148 997.662537,662.772522 998.025024,662.855896 
	C1022.364685,662.887512 1046.704346,662.919128 1071.781738,662.930542 
	C1072.609741,662.596069 1072.699951,662.281799 1072.790161,661.967529 
	C1072.790161,637.697266 1072.790161,613.427002 1072.790161,588.927490 
	C1086.750610,588.927490 1100.158081,588.927490 1113.868774,588.927490 
	C1113.868774,651.319519 1113.868774,713.661377 1113.868774,776.249268 
	C1100.314087,776.249268 1086.896851,776.249268 1072.911255,776.249268 
	C1072.911255,751.823792 1072.911255,727.391296 1072.910400,702.223999 
	C1072.596191,701.387756 1072.282715,701.286194 1071.969360,701.184631 
	C1047.631226,701.138489 1023.292969,701.092346 998.190857,701.039307 
	C997.284302,701.354797 997.141602,701.677307 996.998901,701.999817 
z"/>
<path fill="#252120" opacity="1.000000" stroke="none" 
	d="
M1688.968018,649.985474 
	C1707.575562,625.006104 1739.995605,625.965210 1758.049072,638.177307 
	C1769.252319,645.755676 1776.211304,657.014465 1776.668945,670.058411 
	C1777.899170,705.126099 1777.646118,740.245972 1777.960815,775.345276 
	C1777.963501,775.636292 1777.677002,775.929932 1777.492188,776.286682 
	C1764.250732,776.286682 1750.979980,776.286682 1737.157349,776.286682 
	C1737.157349,774.291077 1737.157349,772.519104 1737.157349,770.747131 
	C1737.157349,746.259949 1737.233154,721.772461 1737.108887,697.285889 
	C1737.073730,690.343201 1736.186768,683.490234 1732.304565,677.386780 
	C1726.870117,668.843323 1718.663574,667.772522 1709.430054,667.844788 
	C1700.561279,667.914368 1694.127808,671.572998 1690.993652,679.327942 
	C1688.650146,685.126770 1687.351562,691.718079 1687.244263,697.984863 
	C1686.828247,722.298340 1687.074585,746.623169 1687.074463,770.943726 
	C1687.074463,772.586914 1687.074585,774.230103 1687.074585,776.184875 
	C1673.410156,776.184875 1660.056152,776.184875 1646.459229,776.184875 
	C1646.459229,711.024414 1646.459229,646.133423 1646.459229,580.924194 
	C1659.898682,580.924194 1673.158203,580.924194 1687.084473,580.924194 
	C1687.084473,603.186890 1687.084473,625.611084 1687.027588,648.866150 
	C1687.029175,650.434875 1687.087646,651.172668 1687.226196,652.918518 
	C1688.132202,651.392883 1688.550049,650.689209 1688.968018,649.985474 
z"/>
<path fill="#252120" opacity="1.000000" stroke="none" 
	d="
M1850.760986,484.896423 
	C1839.634033,487.115540 1828.912598,487.643921 1818.038940,486.056091 
	C1806.446655,484.363342 1795.694336,480.538605 1786.155762,473.830048 
	C1769.533936,462.139587 1758.749634,446.552338 1755.225586,426.214447 
	C1751.468872,404.533234 1755.616211,384.594574 1768.823730,367.026825 
	C1780.669189,351.270721 1796.759033,342.256500 1816.290894,338.877258 
	C1838.463745,335.041046 1859.083130,338.344727 1877.736938,351.098907 
	C1896.005859,363.590057 1906.349243,381.002319 1909.049316,403.099976 
	C1913.942383,443.143494 1886.958374,476.497833 1851.610718,484.573364 
	C1851.456299,484.608612 1851.323730,484.738922 1850.760986,484.896423 
M1866.806641,428.093719 
	C1867.547729,420.877747 1869.312622,413.592163 1868.827637,406.459534 
	C1867.626587,388.796387 1853.283691,374.581055 1836.137329,372.811859 
	C1817.224731,370.860382 1801.604126,380.473358 1796.672485,398.247040 
	C1794.856934,404.789978 1794.510376,412.109802 1795.193359,418.904449 
	C1796.944214,436.324402 1810.612671,449.320282 1828.359131,451.644836 
	C1844.754639,453.792419 1859.797485,444.769165 1866.806641,428.093719 
z"/>
<path fill="#252120" opacity="1.000000" stroke="none" 
	d="
M1270.686279,752.965332 
	C1257.693726,768.771118 1241.263428,777.082581 1221.083618,779.161682 
	C1200.973633,781.233582 1182.727173,777.469055 1166.057983,765.907898 
	C1156.870117,759.535522 1150.373535,750.977478 1145.158936,741.332703 
	C1137.239624,726.685547 1135.423706,710.522217 1137.339722,694.624329 
	C1139.899780,673.381287 1149.479980,654.954224 1167.433472,642.239685 
	C1182.304565,631.708252 1199.312012,628.499451 1217.278687,630.488403 
	C1229.912720,631.887024 1241.519531,635.992371 1251.620972,644.063843 
	C1265.028076,654.776611 1272.467407,669.142517 1275.733887,685.430786 
	C1277.887451,696.169678 1277.855225,707.346924 1278.847534,718.860229 
	C1244.389648,718.860229 1211.297363,718.860229 1178.165039,718.860229 
	C1179.464233,731.859863 1190.604980,743.486450 1203.494019,746.033447 
	C1218.804199,749.058716 1232.079956,745.063965 1243.637817,734.860107 
	C1245.859131,732.898987 1247.488525,731.966248 1250.228882,734.547607 
	C1256.855713,740.789734 1263.868530,746.621948 1270.686279,752.965332 
M1226.500488,668.940735 
	C1216.808105,661.642639 1206.223267,660.720581 1195.474609,665.699219 
	C1184.179810,670.930664 1179.659180,681.091370 1177.416016,693.161194 
	C1187.839600,693.161194 1197.809326,693.161133 1207.779053,693.161133 
	C1217.889648,693.161133 1228.000244,693.161194 1238.397583,693.161194 
	C1237.261597,683.536377 1233.903442,675.633667 1226.500488,668.940735 
z"/>
<path fill="#252120" opacity="1.000000" stroke="none" 
	d="
M1435.104980,353.948608 
	C1433.871216,351.280029 1433.541626,349.494385 1436.814697,348.617493 
	C1447.880981,345.652618 1458.750732,341.539551 1469.995605,339.756012 
	C1485.549805,337.288910 1501.331421,337.347626 1516.720581,341.979248 
	C1538.347900,348.488281 1549.956055,363.454010 1552.929077,385.402863 
	C1553.861328,392.285126 1554.206421,399.290100 1554.247070,406.242249 
	C1554.396851,431.895264 1554.306641,457.549652 1554.306641,483.547058 
	C1540.847534,483.547058 1527.640137,483.547058 1514.027344,483.547058 
	C1514.027344,479.364777 1514.027344,475.275848 1514.027344,470.396515 
	C1512.499390,471.352692 1511.531250,471.797211 1510.757568,472.466522 
	C1494.342163,486.666809 1475.197021,488.449768 1454.945435,484.466156 
	C1442.403076,481.998993 1432.519409,475.012939 1426.664062,463.759430 
	C1423.864746,458.379333 1422.912354,451.781067 1422.235718,445.612518 
	C1421.147705,435.697632 1422.752686,426.022217 1428.204102,417.393951 
	C1435.402710,406.000366 1446.476562,400.665161 1459.210571,398.080902 
	C1476.576416,394.556580 1493.726196,395.591248 1510.694824,400.522430 
	C1511.935669,400.883026 1513.227173,401.069153 1514.527466,401.343201 
	C1515.660889,387.757141 1508.485840,377.230835 1494.717651,374.927032 
	C1478.333008,372.185425 1462.491821,374.080719 1447.183228,380.399994 
	C1444.032959,381.700409 1443.956909,379.366852 1443.336670,377.639832 
	C1440.552856,369.889618 1437.826416,362.118805 1435.104980,353.948608 
M1514.382080,425.246124 
	C1512.818115,424.684875 1511.280762,424.029999 1509.686035,423.577209 
	C1497.118164,420.009064 1484.489624,418.520081 1472.092407,423.972778 
	C1464.331543,427.386200 1460.963867,433.964355 1461.761963,442.636505 
	C1462.418335,449.768860 1467.011353,455.043640 1474.978638,457.002594 
	C1485.055176,459.480164 1494.847046,458.429352 1503.892944,453.120789 
	C1513.595215,447.427002 1517.807007,436.814209 1514.382080,425.246124 
z"/>
<path fill="#242020" opacity="1.000000" stroke="none" 
	d="
M1296.709961,750.216797 
	C1292.115356,735.183350 1293.460938,721.261169 1302.114502,708.255554 
	C1308.748657,698.284912 1318.686157,693.650574 1329.785400,691.274902 
	C1348.047607,687.366150 1366.230957,687.746704 1384.115845,693.685608 
	C1384.879761,693.939270 1385.731567,693.927490 1386.533325,694.038086 
	C1389.797241,678.949768 1377.398804,667.993896 1362.773560,666.696472 
	C1352.426147,665.778564 1342.607422,666.781494 1332.726807,668.971802 
	C1327.526978,670.124512 1322.458496,671.870117 1316.971558,673.451416 
	C1313.706909,664.049500 1310.507812,654.902100 1307.360229,645.736938 
	C1306.231079,642.448486 1308.645630,641.228210 1310.982910,640.581360 
	C1321.549072,637.657288 1332.036621,634.125305 1342.805786,632.341187 
	C1356.062378,630.144897 1369.549805,630.184631 1382.865845,632.994873 
	C1405.259399,637.720825 1420.798340,650.833801 1424.960327,674.830078 
	C1426.001343,680.833008 1426.851929,686.954895 1426.900269,693.029236 
	C1427.112549,719.679321 1426.998169,746.332031 1427.002441,772.983765 
	C1427.002563,773.960266 1427.002441,774.936829 1427.002441,776.204834 
	C1413.820068,776.204834 1400.954956,776.204834 1387.532715,776.204834 
	C1387.532715,771.456543 1387.532715,766.886047 1387.532715,762.449646 
	C1381.427979,766.422546 1375.896118,770.585754 1369.866211,773.820007 
	C1359.841309,779.197021 1348.788574,779.541809 1337.719238,778.900757 
	C1319.205322,777.828491 1305.301147,769.575623 1297.232788,752.467102 
	C1296.967529,751.904968 1297.069702,751.169678 1296.709961,750.216797 
M1339.538696,720.039368 
	C1329.138916,731.659180 1333.946045,746.765137 1349.074097,750.115295 
	C1356.610718,751.784363 1363.960205,750.987366 1371.106689,748.392944 
	C1378.988159,745.531677 1384.857178,740.513062 1387.330933,732.153198 
	C1390.729248,720.669006 1388.932495,717.529541 1377.398315,714.924194 
	C1376.750488,714.777832 1376.114502,714.565857 1375.460693,714.461853 
	C1363.142578,712.501099 1350.969116,711.571411 1339.538696,720.039368 
z"/>
<path fill="#252120" opacity="1.000000" stroke="none" 
	d="
M1164.249023,483.889648 
	C1161.505737,484.114288 1160.097656,483.770996 1160.104492,480.810486 
	C1160.212402,434.160828 1160.215698,387.510895 1160.256714,340.861053 
	C1160.256836,340.734497 1160.458008,340.608154 1160.785278,340.222412 
	C1173.822632,340.222412 1187.084473,340.222412 1201.111816,340.222412 
	C1201.111816,346.047577 1201.111816,351.990387 1201.111816,359.409088 
	C1208.725464,349.742584 1216.561890,342.955841 1226.986572,339.749542 
	C1247.295044,333.503448 1271.601685,339.034760 1282.896484,356.465088 
	C1288.482544,365.085480 1291.650757,374.699127 1291.770508,384.761688 
	C1292.161011,417.571198 1291.916870,450.388245 1291.916870,483.546570 
	C1278.471680,483.546570 1265.088501,483.546570 1251.110107,483.546570 
	C1251.110107,481.743317 1251.110107,479.970856 1251.110107,478.198425 
	C1251.110229,453.540070 1251.309814,428.879120 1250.985474,404.225037 
	C1250.891235,397.071442 1250.154053,389.834198 1245.561157,383.528931 
	C1241.155762,377.481079 1235.261353,374.818909 1228.238892,375.129852 
	C1223.010498,375.361359 1217.244873,375.749237 1212.764893,378.079254 
	C1202.915527,383.201965 1201.202393,393.135406 1201.136108,403.154785 
	C1200.970825,428.145233 1201.078003,453.137543 1201.075806,478.129089 
	C1201.075562,479.911591 1201.075684,481.694092 1201.075684,483.889679 
	C1188.629883,483.889679 1176.675903,483.889679 1164.249023,483.889648 
z"/>
<path fill="#252120" opacity="1.000000" stroke="none" 
	d="
M1603.326172,742.613525 
	C1608.375854,741.106812 1613.031250,739.785156 1618.108276,738.343872 
	C1618.231934,739.404480 1618.490845,740.618103 1618.496094,741.832764 
	C1618.527954,749.163818 1618.102417,756.523743 1618.628174,763.816589 
	C1619.011597,769.137939 1617.147217,771.972168 1612.310913,773.845886 
	C1596.461548,779.986206 1580.331055,781.206421 1564.312744,775.491821 
	C1552.511475,771.281738 1546.163940,761.143250 1545.547485,749.421753 
	C1544.250488,724.766663 1544.608521,700.024414 1544.294922,675.317871 
	C1544.265503,673.002075 1544.291016,670.685547 1544.291016,667.888977 
	C1538.672241,667.888977 1533.268677,667.888977 1527.490479,667.888977 
	C1527.490479,656.196167 1527.490479,644.971802 1527.490479,632.994751 
	C1531.506226,632.994751 1535.757935,632.880310 1540.000244,633.031799 
	C1543.260254,633.148193 1544.374634,631.792480 1544.335205,628.583008 
	C1544.204590,617.942627 1544.285889,607.299622 1544.285889,596.291565 
	C1557.923950,596.291565 1571.288208,596.291565 1585.066406,596.291565 
	C1585.066406,608.230591 1585.066406,620.150452 1585.066406,632.443970 
	C1596.404419,632.443970 1607.344116,632.443970 1618.642700,632.443970 
	C1618.642700,644.214111 1618.642700,655.613586 1618.642700,667.576965 
	C1607.707520,667.576965 1596.637451,667.576965 1585.121216,667.576965 
	C1585.121216,676.088623 1585.121216,684.048096 1585.121338,692.007629 
	C1585.121338,703.337646 1585.105591,714.667664 1585.125366,725.997681 
	C1585.149902,740.128174 1588.911133,743.664307 1603.326172,742.613525 
z"/>
<path fill="#252120" opacity="1.000000" stroke="none" 
	d="
M1370.997803,339.807526 
	C1381.619507,339.807526 1392.241211,339.807526 1403.082275,339.807526 
	C1403.082275,351.645538 1403.082275,362.914062 1403.082275,374.790833 
	C1392.086548,374.790833 1381.047729,374.790833 1369.619751,374.790833 
	C1369.619751,385.845062 1369.586426,396.297638 1369.628906,406.749908 
	C1369.673584,417.742035 1369.605469,428.739685 1369.947266,439.723694 
	C1370.145508,446.087646 1374.506836,450.380402 1380.834717,449.911865 
	C1388.058594,449.376923 1395.202637,447.763916 1402.885620,446.539001 
	C1402.885620,455.724915 1403.005371,465.949829 1402.730347,476.164062 
	C1402.696899,477.403595 1400.747803,478.991211 1399.328735,479.730804 
	C1387.821777,485.727325 1375.417236,486.646027 1362.742188,485.879089 
	C1348.593628,485.023041 1337.490601,479.504883 1332.208130,465.511017 
	C1330.809692,461.806366 1329.441895,457.810394 1329.379272,453.926910 
	C1328.987427,429.612274 1328.968384,405.291595 1328.828491,380.972931 
	C1328.818115,379.166290 1328.827148,377.359558 1328.827148,375.094727 
	C1323.116821,375.094727 1317.703125,375.094727 1311.953369,375.094727 
	C1311.953369,363.248718 1311.953369,351.865936 1311.953369,340.074097 
	C1317.332031,340.074097 1322.767822,340.074097 1328.765137,340.074097 
	C1328.765137,327.635010 1328.765137,315.583252 1328.765137,303.111938 
	C1341.782227,303.111938 1354.237549,303.020111 1366.685181,303.284851 
	C1367.689819,303.306213 1369.456787,305.756317 1369.489624,307.111359 
	C1369.740601,317.434326 1369.648071,327.765625 1369.772949,338.850098 
	C1370.254761,339.673065 1370.626221,339.740295 1370.997803,339.807526 
z"/>
<path fill="#242120" opacity="1.000000" stroke="none" 
	d="
M1624.972534,343.179504 
	C1624.973022,350.965118 1624.973022,358.265320 1624.973022,365.565491 
	C1634.167725,346.421967 1648.606934,336.134033 1670.597412,337.381805 
	C1670.597412,351.589050 1670.597412,365.498627 1670.597412,379.385040 
	C1665.166992,380.162079 1659.742065,380.415985 1654.606201,381.768036 
	C1636.902222,386.428741 1627.834717,399.325317 1626.296631,416.431824 
	C1624.619995,435.080139 1625.303345,453.941345 1624.981323,472.710114 
	C1624.921509,476.197418 1624.973022,479.686646 1624.973022,483.532166 
	C1611.402710,483.532166 1598.022827,483.532166 1584.333740,483.532166 
	C1584.333740,435.882629 1584.333740,388.189850 1584.333740,339.971283 
	C1597.276611,339.971283 1610.206787,339.933502 1623.134766,340.086945 
	C1623.757324,340.094330 1624.360107,341.786469 1624.972534,343.179504 
z"/>
<path fill="#231F1E" opacity="1.000000" stroke="none" 
	d="
M1499.300293,602.000122 
	C1499.300293,660.282104 1499.300293,718.064087 1499.300293,776.178650 
	C1485.706787,776.178650 1472.484497,776.178650 1458.936157,776.178650 
	C1458.936157,711.206848 1458.936157,646.308350 1458.936157,581.010803 
	C1472.043701,581.010803 1485.280640,581.010803 1499.300293,581.010803 
	C1499.300293,587.661194 1499.300293,594.580627 1499.300293,602.000122 
z"/>
<path fill="#262221" opacity="1.000000" stroke="none" 
	d="
M1692.763916,474.962769 
	C1692.763916,429.842194 1692.763916,385.217529 1692.763916,340.276855 
	C1706.330566,340.276855 1719.721191,340.276855 1733.241577,340.276855 
	C1733.241577,388.050446 1733.241577,435.745300 1733.241577,483.666016 
	C1719.754150,483.666016 1706.652222,483.666016 1692.763916,483.666016 
	C1692.763916,480.948303 1692.763916,478.203522 1692.763916,474.962769 
z"/>
<path fill="#252120" opacity="1.000000" stroke="none" 
	d="
M1701.020996,287.923828 
	C1712.334839,287.923859 1723.150269,287.923859 1734.338379,287.923859 
	C1734.338379,299.996307 1734.338379,311.847076 1734.338379,323.910828 
	C1720.255371,323.910828 1706.323486,323.910828 1692.041748,323.910828 
	C1692.041748,312.154968 1692.041748,300.423035 1692.041748,287.923828 
	C1694.708862,287.923828 1697.615723,287.923828 1701.020996,287.923828 
z"/>
<path fill="#CBCACA" opacity="1.000000" stroke="none" 
	d="
M1688.709473,649.936218 
	C1688.550049,650.689209 1688.132202,651.392883 1687.226196,652.918518 
	C1687.087646,651.172668 1687.029175,650.434875 1687.072266,649.330566 
	C1687.599487,649.271729 1688.025269,649.579346 1688.709473,649.936218 
z"/>
<path fill="#D4D3D3" opacity="1.000000" stroke="none" 
	d="
M997.886230,662.676270 
	C997.662537,662.772522 997.300049,662.689148 996.968140,662.302979 
	C997.296265,662.093384 997.545837,662.258850 997.886230,662.676270 
z"/>
<path fill="#D4D3D3" opacity="1.000000" stroke="none" 
	d="
M1072.598877,662.048096 
	C1072.699951,662.281799 1072.609741,662.596069 1072.244263,662.863525 
	C1072.030762,662.533386 1072.177002,662.304016 1072.598877,662.048096 
z"/>
<path fill="#D4D3D3" opacity="1.000000" stroke="none" 
	d="
M997.204224,701.902954 
	C997.141602,701.677307 997.284302,701.354797 997.726074,701.088257 
	C997.860962,701.402954 997.655762,701.623596 997.204224,701.902954 
z"/>
<path fill="#D4D3D3" opacity="1.000000" stroke="none" 
	d="
M1072.045654,701.377563 
	C1072.282715,701.286194 1072.596191,701.387756 1072.848633,701.761230 
	C1072.498657,701.975525 1072.276855,701.821289 1072.045654,701.377563 
z"/>
<path fill="#F1F1F1" opacity="1.000000" stroke="none" 
	d="
M1370.865601,339.614746 
	C1370.626221,339.740295 1370.254761,339.673065 1369.898560,339.304565 
	C1370.236938,339.045258 1370.510132,339.184814 1370.865601,339.614746 
z"/>
<path fill="#FDFEFF" opacity="1.000000" stroke="none" 
	d="
M600.543579,633.513306 
	C587.179077,669.460693 564.804932,697.907227 533.615662,719.896667 
	C517.955811,709.457947 504.511444,696.890747 493.183197,682.148987 
	C466.938782,647.996399 454.338898,609.338196 456.046387,566.247681 
	C456.266205,560.699768 454.757111,558.014404 449.764099,555.261597 
	C394.302917,524.683960 363.141388,477.664612 355.555969,414.829712 
	C355.122772,411.241211 356.934357,410.557922 359.256653,409.570038 
	C418.067108,384.553375 474.699005,388.754120 529.145996,422.237274 
	C530.557068,423.105072 531.933716,424.028900 533.435791,424.997070 
	C552.901428,411.922211 573.873596,402.486237 596.798706,397.685577 
	C634.983276,389.689453 671.923218,393.713440 707.658020,409.309418 
	C710.383911,410.499084 711.698547,411.657715 711.287476,415.131714 
	C703.765930,478.698212 671.886169,525.686279 615.601135,556.067566 
	C612.129028,557.941711 610.614197,559.741211 610.839355,563.955078 
	C612.106445,587.670410 608.671326,610.764282 600.543579,633.513306 
M472.002106,506.520355 
	C485.136932,491.417755 507.121338,493.779480 525.148560,510.928009 
	C507.284424,516.487793 498.505463,529.896240 495.366760,547.116028 
	C488.692963,583.730347 495.374786,618.004272 515.691772,649.291931 
	C520.777222,657.123291 527.068054,664.171936 533.058899,671.908386 
	C560.309998,643.327698 573.340332,610.417542 573.910095,571.814697 
	C560.313293,572.781372 547.737000,571.394897 539.521667,559.625305 
	C531.789856,548.548401 532.217896,535.971863 534.297302,522.604187 
	C549.345032,536.167358 565.990295,536.508179 583.211182,529.852417 
	C623.512329,514.276306 651.433472,486.258179 666.443359,445.607452 
	C667.626831,442.402374 668.491028,439.079376 669.617004,435.445343 
	C631.675964,426.280914 596.555603,431.425049 563.167419,450.312286 
	C584.692810,480.128540 564.420166,501.735291 540.945312,508.393829 
	C541.897705,488.010712 538.950256,478.223328 526.018860,466.716888 
	C496.449371,440.405762 461.578522,428.807678 422.128021,431.423401 
	C413.960602,431.964935 405.880890,433.829803 397.139984,435.180695 
	C408.343109,473.023254 430.172638,500.920532 462.866974,520.078552 
	C466.028107,515.341309 468.786652,511.207336 472.002106,506.520355 
z"/>
<path fill="#FEFEFE" opacity="1.000000" stroke="none" 
	d="
M1088.422363,419.325928 
	C1075.860596,441.897034 1052.241333,452.831635 1027.488892,447.751099 
	C1003.877625,442.904785 985.804932,422.860199 982.877380,398.667633 
	C980.784302,381.370789 983.939392,365.359680 994.962585,351.705963 
	C1009.813904,333.310455 1029.570068,327.272339 1052.158691,332.659668 
	C1075.256226,338.168365 1088.822388,353.930450 1093.914917,376.785461 
	C1097.156738,391.334503 1095.375732,405.562317 1088.422363,419.325928 
z"/>
<path fill="#FEFEFE" opacity="1.000000" stroke="none" 
	d="
M1866.631592,428.443146 
	C1859.797485,444.769165 1844.754639,453.792419 1828.359131,451.644836 
	C1810.612671,449.320282 1796.944214,436.324402 1795.193359,418.904449 
	C1794.510376,412.109802 1794.856934,404.789978 1796.672485,398.247040 
	C1801.604126,380.473358 1817.224731,370.860382 1836.137329,372.811859 
	C1853.283691,374.581055 1867.626587,388.796387 1868.827637,406.459534 
	C1869.312622,413.592163 1867.547729,420.877747 1866.631592,428.443146 
z"/>
<path fill="#FEFEFE" opacity="1.000000" stroke="none" 
	d="
M1226.783813,669.161194 
	C1233.903442,675.633667 1237.261597,683.536377 1238.397583,693.161194 
	C1228.000244,693.161194 1217.889648,693.161133 1207.779053,693.161133 
	C1197.809326,693.161133 1187.839600,693.161194 1177.416016,693.161194 
	C1179.659180,681.091370 1184.179810,670.930664 1195.474609,665.699219 
	C1206.223267,660.720581 1216.808105,661.642639 1226.783813,669.161194 
z"/>
<path fill="#FDFDFD" opacity="1.000000" stroke="none" 
	d="
M1514.714111,425.491638 
	C1517.807007,436.814209 1513.595215,447.427002 1503.892944,453.120789 
	C1494.847046,458.429352 1485.055176,459.480164 1474.978638,457.002594 
	C1467.011353,455.043640 1462.418335,449.768860 1461.761963,442.636505 
	C1460.963867,433.964355 1464.331543,427.386200 1472.092407,423.972778 
	C1484.489624,418.520081 1497.118164,420.009064 1509.686035,423.577209 
	C1511.280762,424.029999 1512.818115,424.684875 1514.714111,425.491638 
z"/>
<path fill="#FCFCFC" opacity="1.000000" stroke="none" 
	d="
M1339.806396,719.788574 
	C1350.969116,711.571411 1363.142578,712.501099 1375.460693,714.461853 
	C1376.114502,714.565857 1376.750488,714.777832 1377.398315,714.924194 
	C1388.932495,717.529541 1390.729248,720.669006 1387.330933,732.153198 
	C1384.857178,740.513062 1378.988159,745.531677 1371.106689,748.392944 
	C1363.960205,750.987366 1356.610718,751.784363 1349.074097,750.115295 
	C1333.946045,746.765137 1329.138916,731.659180 1339.806396,719.788574 
z"/>
<path fill="#02B1E2" opacity="1.000000" stroke="none" 
	d="
M471.773682,506.796875 
	C468.786652,511.207336 466.028107,515.341309 462.866974,520.078552 
	C430.172638,500.920532 408.343109,473.023254 397.139984,435.180695 
	C405.880890,433.829803 413.960602,431.964935 422.128021,431.423401 
	C461.578522,428.807678 496.449371,440.405762 526.018860,466.716888 
	C538.950256,478.223328 541.897705,488.010712 540.945312,508.393829 
	C564.420166,501.735291 584.692810,480.128540 563.167419,450.312286 
	C596.555603,431.425049 631.675964,426.280914 669.617004,435.445343 
	C668.491028,439.079376 667.626831,442.402374 666.443359,445.607452 
	C651.433472,486.258179 623.512329,514.276306 583.211182,529.852417 
	C565.990295,536.508179 549.345032,536.167358 534.297302,522.604187 
	C532.217896,535.971863 531.789856,548.548401 539.521667,559.625305 
	C547.737000,571.394897 560.313293,572.781372 573.910095,571.814697 
	C573.340332,610.417542 560.309998,643.327698 533.058899,671.908386 
	C527.068054,664.171936 520.777222,657.123291 515.691772,649.291931 
	C495.374786,618.004272 488.692963,583.730347 495.366760,547.116028 
	C498.505463,529.896240 507.284424,516.487793 525.148560,510.928009 
	C507.121338,493.779480 485.136932,491.417755 471.773682,506.796875 
z"/>
</svg>